<svg width="20" height="20" viewBox="0 0 20 20" fill="none" xmlns="http://www.w3.org/2000/svg">
<path d="M4.11107 8.67546C5.68737 11.7733 8.22696 14.302 11.3248 15.8892L13.733 13.481C14.0286 13.1854 14.4665 13.0869 14.8496 13.2183C16.0756 13.6233 17.4001 13.8422 18.7575 13.8422C19.3595 13.8422 19.8521 14.3348 19.8521 14.9369V18.7572C19.8521 19.3592 19.3595 19.8518 18.7575 19.8518C8.47872 19.8518 0.148438 11.5215 0.148438 1.24278C0.148438 0.640725 0.64103 0.148132 1.24309 0.148132H5.07436C5.67642 0.148132 6.16901 0.640725 6.16901 1.24278C6.16901 2.6111 6.38794 3.92468 6.79296 5.15068C6.91337 5.53381 6.8258 5.96072 6.5193 6.26723L4.11107 8.67546Z" fill="#393939"/>
</svg>
