<svg width="137" height="60" viewBox="0 0 137 60" fill="none" xmlns="http://www.w3.org/2000/svg">
<path d="M3.01565 50.2657V54.51H7.06873V55.0605H3.01565V59.3337H7.50299V59.8841H2.36426V49.7153H7.50299V50.2657H3.01565Z" fill="white"/>
<path d="M14.4687 59.3337H18.2467V59.8841H13.8173V49.7153H14.4687V59.3337Z" fill="white"/>
<path d="M24.7201 50.2657V54.51H28.7732V55.0605H24.7201V59.3337H29.2075V59.8841H24.0687V49.7153H29.2075V50.2657H24.7201Z" fill="white"/>
<path d="M35.1164 54.8142C35.1164 53.8099 35.3239 52.9166 35.7389 52.1344C36.1635 51.3425 36.7425 50.7244 37.4759 50.2802C38.219 49.836 39.0489 49.6139 39.9657 49.6139C41.1237 49.6139 42.0984 49.8843 42.8897 50.4251C43.681 50.9659 44.26 51.724 44.6267 52.6993H43.874C43.5845 51.9267 43.102 51.3184 42.4265 50.8741C41.7606 50.4203 40.9403 50.1933 39.9657 50.1933C39.184 50.1933 38.4747 50.3816 37.8378 50.7582C37.2009 51.1252 36.6991 51.6612 36.3324 52.3661C35.9656 53.0614 35.7823 53.8775 35.7823 54.8142C35.7823 55.7413 35.9656 56.5525 36.3324 57.2478C36.6991 57.9334 37.2009 58.4646 37.8378 58.8412C38.4747 59.2178 39.184 59.4061 39.9657 59.4061C40.9403 59.4061 41.7606 59.184 42.4265 58.7398C43.102 58.2859 43.5845 57.6727 43.874 56.9001H44.6267C44.26 57.8755 43.681 58.6335 42.8897 59.1743C42.0984 59.7151 41.1237 59.9855 39.9657 59.9855C39.0489 59.9855 38.219 59.7682 37.4759 59.3337C36.7425 58.8895 36.1635 58.2762 35.7389 57.494C35.3239 56.7021 35.1164 55.8089 35.1164 54.8142Z" fill="white"/>
<path d="M56.6199 49.7153V50.2657H53.7249V59.8841H53.0735V50.2657H50.1784V49.7153H56.6199Z" fill="white"/>
<path d="M67.9992 59.8841L65.3937 55.553H65.3358H63.1645V59.8841H62.5131V49.7153H65.3068C66.4359 49.7153 67.2803 49.9809 67.84 50.512C68.4093 51.0431 68.694 51.7481 68.694 52.6269C68.694 53.4091 68.4721 54.0561 68.0282 54.5679C67.5939 55.0701 66.957 55.3791 66.1174 55.495L68.7809 59.8841H67.9992ZM63.1645 55.0025H65.3358C66.2332 55.0025 66.9039 54.7852 67.3478 54.3507C67.7917 53.9161 68.0137 53.3415 68.0137 52.6269C68.0137 51.0721 67.1114 50.2947 65.3068 50.2947H63.1645V55.0025Z" fill="white"/>
<path d="M79.5005 60C78.5645 60 77.7201 59.7827 76.9673 59.3482C76.2146 58.9039 75.626 58.2859 75.2014 57.494C74.7767 56.7021 74.5644 55.8089 74.5644 54.8142C74.5644 53.8099 74.7767 52.9166 75.2014 52.1344C75.626 51.3425 76.2146 50.7293 76.9673 50.2947C77.7201 49.8505 78.5645 49.6284 79.5005 49.6284C80.4366 49.6284 81.281 49.8505 82.0337 50.2947C82.7864 50.7293 83.3751 51.3425 83.7997 52.1344C84.2243 52.9166 84.4366 53.8099 84.4366 54.8142C84.4366 55.8089 84.2243 56.7021 83.7997 57.494C83.3751 58.2859 82.7864 58.9039 82.0337 59.3482C81.281 59.7827 80.4366 60 79.5005 60ZM79.5005 59.4206C80.3015 59.4206 81.0253 59.2323 81.6718 58.8557C82.3184 58.479 82.825 57.9431 83.1917 57.2478C83.5681 56.5525 83.7563 55.7413 83.7563 54.8142C83.7563 53.8775 83.5681 53.0614 83.1917 52.3661C82.825 51.6708 82.3184 51.1349 81.6718 50.7582C81.0253 50.3816 80.3015 50.1933 79.5005 50.1933C78.6996 50.1933 77.9758 50.3816 77.3292 50.7582C76.6827 51.1349 76.1712 51.6708 75.7948 52.3661C75.4185 53.0614 75.2303 53.8775 75.2303 54.8142C75.2303 55.7413 75.4185 56.5525 75.7948 57.2478C76.1712 57.9431 76.6827 58.479 77.3292 58.8557C77.9758 59.2323 78.6996 59.4206 79.5005 59.4206Z" fill="white"/>
<path d="M98.015 59.8841H97.3636L91.3998 50.7872V59.8841H90.7484V49.7298H91.3998L97.3636 58.7977V49.7298H98.015V59.8841Z" fill="white"/>
<path d="M105.397 49.7153V59.8841H104.746V49.7153H105.397Z" fill="white"/>
<path d="M111.722 54.8142C111.722 53.8099 111.93 52.9166 112.345 52.1344C112.769 51.3425 113.348 50.7244 114.082 50.2802C114.825 49.836 115.655 49.6139 116.572 49.6139C117.73 49.6139 118.704 49.8843 119.496 50.4251C120.287 50.9659 120.866 51.724 121.233 52.6993H120.48C120.19 51.9267 119.708 51.3184 119.032 50.8741C118.367 50.4203 117.546 50.1933 116.572 50.1933C115.79 50.1933 115.081 50.3816 114.444 50.7582C113.807 51.1252 113.305 51.6612 112.938 52.3661C112.572 53.0614 112.388 53.8775 112.388 54.8142C112.388 55.7413 112.572 56.5525 112.938 57.2478C113.305 57.9334 113.807 58.4646 114.444 58.8412C115.081 59.2178 115.79 59.4061 116.572 59.4061C117.546 59.4061 118.367 59.184 119.032 58.7398C119.708 58.2859 120.19 57.6727 120.48 56.9001H121.233C120.866 57.8755 120.287 58.6335 119.496 59.1743C118.704 59.7151 117.73 59.9855 116.572 59.9855C115.655 59.9855 114.825 59.7682 114.082 59.3337C113.348 58.8895 112.769 58.2762 112.345 57.494C111.93 56.7021 111.722 55.8089 111.722 54.8142Z" fill="white"/>
<path d="M133.371 57.2767H128.55L127.581 59.8841H126.871L130.606 49.9471H131.33L135.05 59.8841H134.341L133.371 57.2767ZM133.168 56.7263L130.968 50.8017L128.753 56.7263H133.168Z" fill="white"/>
<path d="M11.0109 38.493L3.34379 20.5116C2.84842 19.3624 2.4994 18.4386 2.29675 17.7401C2.09409 17.019 1.95899 16.4106 1.89144 15.9149C1.5762 15.9374 1.26096 15.9487 0.945719 15.9487C0.63048 15.9487 0.31524 15.9599 0 15.9825L0 14.4953H7.83596L7.80219 15.6445C6.67633 15.7121 6.00082 16.0613 5.77564 16.6923C5.55047 17.3007 5.66306 18.1682 6.1134 19.2948C6.65381 20.6243 7.17171 21.9087 7.66708 23.148C8.16246 24.3873 8.71413 25.728 9.32209 27.1701C9.8625 28.432 10.3804 29.6488 10.8758 30.8205C11.3937 31.9697 11.7877 32.9273 12.0579 33.6935H12.1255C12.3732 32.9048 12.6209 32.1499 12.8685 31.4289C13.1387 30.7078 13.454 29.8516 13.8143 28.8601C14.4898 26.9673 15.0527 25.3675 15.503 24.0606C15.9759 22.7537 16.3812 21.6383 16.719 20.7144C17.0567 19.7906 17.3382 19.0019 17.5634 18.3485C17.766 17.7626 17.9462 17.2669 18.1038 16.8613C18.2614 16.4557 18.4078 16.1177 18.5429 15.8473C18.115 15.8698 17.6872 15.8923 17.2594 15.9149C16.8316 15.9374 16.3925 15.9599 15.9421 15.9825V14.4953H22.7986V15.6107C21.8078 15.6558 21.0423 15.9149 20.5018 16.3881C19.984 16.8613 19.5111 17.7063 19.0833 18.923C19.0382 19.0357 18.9819 19.1934 18.9144 19.3962C18.8468 19.5765 18.7343 19.8807 18.5766 20.3088C18.419 20.737 18.1938 21.3679 17.9011 22.2016C17.6084 23.0128 17.2031 24.1169 16.6852 25.514C16.1898 26.911 15.5481 28.6686 14.76 30.7867C13.9944 32.9048 13.0599 35.4736 11.9566 38.493H11.0109Z" fill="white"/>
<path d="M39.1906 29.4009C39.1906 28.4095 39.0555 27.6997 38.7853 27.2715C38.5151 26.8434 38.0873 26.5843 37.5018 26.4941C36.9164 26.404 36.1396 26.3815 35.1713 26.4265L32.7057 26.5279V34.268C32.7057 34.8764 32.6944 35.3947 32.6719 35.8228C32.6719 36.251 32.6494 36.6115 32.6044 36.9044L39.0555 36.803C40.0463 36.7805 40.9019 36.6228 41.6225 36.3298C42.343 36.0144 42.906 35.4736 43.3113 34.7074C43.7166 33.9413 43.9192 32.8935 43.9192 31.5641H45.0676L44.8649 38.155H27.4367V37.0396C28.2923 36.9945 28.8778 36.803 29.193 36.465C29.5083 36.1045 29.6771 35.62 29.6997 35.0116C29.7447 34.3807 29.7672 33.6709 29.7672 32.8823V18.2809C29.7672 17.8302 29.7785 17.4021 29.801 16.9965C29.8235 16.5683 29.846 16.1853 29.8685 15.8473C29.4632 15.8698 29.0579 15.8923 28.6526 15.9149C28.2473 15.9374 27.842 15.9599 27.4367 15.9825V14.4953H43.6828L43.8517 20.4102H42.7371C42.7371 19.0808 42.5344 18.0781 42.1291 17.4021C41.7238 16.7035 41.1721 16.2416 40.4741 16.0163C39.7986 15.7684 39.033 15.6558 38.1774 15.6783L35.2726 15.7459C34.4395 15.7684 33.8428 15.9261 33.4825 16.2191C33.1223 16.512 32.8971 16.9514 32.807 17.5373C32.7395 18.1006 32.7057 18.8442 32.7057 19.768V25.176L39.0555 25.2098L38.8191 22.303H40.3052V29.4009H39.1906Z" fill="white"/>
<path d="M106.679 38.6956L93.2027 20.579C93.0001 20.3086 92.7974 20.0495 92.5948 19.8016C92.4146 19.5312 92.2232 19.2608 92.0206 18.9904H91.9868L92.0881 33.4567C92.0881 34.02 92.0881 34.5833 92.0881 35.1466C92.0881 35.71 92.0656 36.262 92.0206 36.8028C92.4259 36.7803 92.8312 36.7577 93.2365 36.7352C93.6418 36.7127 94.0471 36.6901 94.4524 36.6676V38.1548H88.2715V37.0394C88.9695 37.0394 89.4649 36.8929 89.7576 36.6C90.0729 36.2846 90.2755 35.924 90.3656 35.5184C90.4556 35.0903 90.5007 34.7072 90.5007 34.3692L90.5345 18.1117C90.5345 17.7286 90.5345 17.3455 90.5345 16.9625C90.5345 16.5794 90.5345 16.2076 90.5345 15.8471C90.1742 15.8696 89.8026 15.8921 89.4199 15.9147C89.0371 15.9372 88.6543 15.9597 88.2715 15.9823V14.4951H92.2908L104.957 31.4625C105.249 31.8455 105.531 32.2286 105.801 32.6117C106.094 32.9947 106.387 33.3778 106.679 33.7609H106.713L106.747 18.2807C106.747 17.83 106.758 17.4019 106.781 16.9963C106.803 16.5681 106.826 16.1851 106.848 15.8471C106.443 15.8696 106.038 15.8921 105.632 15.9147C105.227 15.9372 104.822 15.9597 104.416 15.9823V14.4951H110.631V15.6105C109.798 15.633 109.224 15.8245 108.908 16.1851C108.593 16.5456 108.424 17.0301 108.402 17.6385C108.379 18.2468 108.368 18.9566 108.368 19.7678L108.3 38.6956H106.679Z" fill="white"/>
<path d="M115.249 38.1548V37.0394C115.924 37.0394 116.442 36.8591 116.802 36.4986C117.163 36.1381 117.455 35.6424 117.681 35.0114C117.928 34.3805 118.21 33.6482 118.525 32.8145L125.483 13.8529H126.293L133.825 33.0849C134.006 33.5581 134.208 34.1664 134.433 34.91C134.659 35.6536 134.749 36.2846 134.704 36.8028C135.086 36.7803 135.469 36.7577 135.852 36.7352C136.235 36.7127 136.618 36.6901 137 36.6676V38.1548H129.266V37.0394C130.121 37.0169 130.684 36.8253 130.954 36.4648C131.225 36.1043 131.326 35.6762 131.258 35.1804C131.191 34.6847 131.078 34.234 130.921 33.8285L129.739 30.6513L120.957 30.8541L119.775 34.4706C119.617 35.0114 119.471 35.4396 119.336 35.755C119.223 36.0705 119.088 36.4198 118.93 36.8028C119.381 36.7803 119.82 36.7577 120.248 36.7352C120.698 36.7127 121.137 36.6901 121.565 36.6676V38.1548H115.249ZM121.463 29.4007H129.266L126.868 22.945C126.62 22.2465 126.361 21.5592 126.091 20.8832C125.843 20.1847 125.595 19.4862 125.348 18.7876H125.28C125.055 19.4186 124.819 20.0495 124.571 20.6804C124.346 21.3113 124.109 21.9535 123.862 22.607L121.463 29.4007Z" fill="white"/>
<path fill-rule="evenodd" clip-rule="evenodd" d="M62.7852 5.26616C61.5863 5.51662 60.5561 6.08602 59.6901 6.97615C58.4819 8.20968 57.882 9.7797 57.882 11.6713C57.882 12.4934 58.0137 13.3321 58.2851 14.179C58.5477 15.0336 58.9012 15.7657 59.353 16.3742C59.821 16.9992 60.4782 17.5996 61.325 18.1831C62.1708 18.7586 63.4612 19.4903 65.203 20.3784C66.7394 21.1434 67.9062 21.8011 68.7195 22.3273C69.5333 22.8616 70.1905 23.396 70.6919 23.9384C72.0799 25.4516 72.7705 27.2934 72.7705 29.4637C72.7705 30.7957 72.4992 32.079 71.9571 33.3202C71.4227 34.5533 70.6667 35.6139 69.6971 36.5018C67.9884 38.0727 65.9585 38.8618 63.6255 38.8618C62.8613 38.8618 62.1631 38.7878 61.5136 38.6396C60.8731 38.4833 60.0106 38.1879 58.9256 37.7353C58.1203 37.415 57.5701 37.2091 57.2822 37.1273C56.9865 37.037 56.7319 36.9955 56.5018 36.9955C55.943 36.9955 55.5652 37.3984 55.3679 38.2209H54.8259L54.6778 28.6498H55.2198C55.6554 30.1792 56.0255 31.3549 56.3456 32.1693C56.6579 32.9833 57.028 33.7312 57.4636 34.4219C58.2516 35.6797 59.1227 36.6089 60.0679 37.2172C61.0211 37.8175 62.113 38.1219 63.3542 38.1219C65.1543 38.1219 66.5751 37.5136 67.6268 36.2882C68.0623 35.7868 68.3995 35.195 68.646 34.5207C68.9005 33.846 69.0237 33.172 69.0237 32.49C69.0237 29.8011 67.2982 27.6381 63.839 25.994L60.4456 24.3499C57.8243 23.1078 55.9349 21.7351 54.7843 20.2383C53.4614 18.5616 52.8047 16.6122 52.8047 14.3927C52.8047 12.9206 53.1008 11.5146 53.7001 10.1745C54.5383 8.30811 55.7953 6.86139 57.4636 5.84971C58.9658 4.94325 60.7062 4.43971 62.6898 4.34468L62.7852 5.26616Z" fill="#45A970"/>
<path fill-rule="evenodd" clip-rule="evenodd" d="M72.114 33.012C72.5081 32.731 72.4307 32.8324 73.2962 31.9423C74.5044 30.7087 74.9061 29.082 74.9061 27.1904C74.9061 26.3684 74.7743 25.5296 74.503 24.6827C74.2403 23.8281 73.8869 23.0959 73.4351 22.4876C72.967 21.8625 72.3099 21.2622 71.4631 20.6786C70.6173 20.1032 69.3268 19.3714 67.585 18.4834C66.0487 17.7183 64.8818 17.0607 64.0686 16.5344C63.2548 16.0001 62.5976 15.4658 62.0961 14.9233C60.7082 13.4102 60.0176 11.5683 60.0176 9.39797C60.0176 8.06591 60.2889 6.78273 60.831 5.54153C61.3654 4.308 62.1213 3.24787 63.0909 2.35994C64.7997 0.78904 66.8295 -3.05176e-05 69.1625 -3.05176e-05C69.9267 -3.05176e-05 70.625 0.0739517 71.2745 0.221703C71.9149 0.378002 72.7779 0.67384 73.8626 1.12641C74.6677 1.44669 75.218 1.6522 75.5059 1.73441C75.8016 1.82472 76.0561 1.86626 76.2863 1.86626C76.8451 1.86626 77.2229 1.46335 77.4201 0.64085H77.9622L78.1103 10.2119H77.5682C77.1326 8.68212 76.7625 7.50636 76.4425 6.69241C76.1302 5.87846 75.7601 5.1305 75.3245 4.43986C74.5364 3.18199 73.6653 2.25241 72.7202 1.64453C71.7669 1.0442 70.675 0.739826 69.4338 0.739826C67.6342 0.739826 66.213 1.34815 65.1612 2.57356C64.7257 3.07491 64.3885 3.66668 64.1421 4.34099C63.8875 5.01574 63.7643 5.68971 63.7643 6.37169C63.7643 9.0606 65.4898 11.2236 68.949 12.8677L72.3424 14.5118C74.9638 15.7539 76.8532 17.1266 78.0037 18.6235C79.3266 20.3001 79.9834 22.2495 79.9834 24.4691C79.9834 25.9411 79.6873 27.3471 79.0879 28.6872C78.2497 30.5536 76.9927 32.0003 75.3245 33.012C73.8223 33.9185 73.3095 34.2133 71.3259 34.3083L72.114 33.012Z" fill="#B4B4B4"/>
</svg>
