<?xml version="1.0" encoding="utf-8"?><svg viewBox="0 0 137 60" xmlns="http://www.w3.org/2000/svg" xmlns:xlink="http://www.w3.org/1999/xlink"><style>:root>svg{display:none}:root>svg:target{display:block}</style><svg fill="none" viewBox="0 0 8 31" id="arrow-bottom" xmlns="http://www.w3.org/2000/svg"><path d="M3.646 30.354a.5.5 0 00.708 0l3.182-3.182a.5.5 0 10-.708-.707L4 29.293l-2.828-2.828a.5.5 0 10-.708.707l3.182 3.182zM3.5 0v30h1V0h-1z" fill="#2E2E2E"/></svg><svg fill="none" viewBox="0 0 26 8" id="arrow-left" xmlns="http://www.w3.org/2000/svg"><path d="M.646 3.646a.5.5 0 000 .708l3.182 3.182a.5.5 0 10.708-.708L1.707 4l2.829-2.828a.5.5 0 10-.708-.708L.646 3.646zM26 3.5H1v1h25v-1z" fill="#2E2E2E"/></svg><svg fill="none" viewBox="0 0 26 8" id="arrow-right" xmlns="http://www.w3.org/2000/svg"><path d="M25.354 4.354a.5.5 0 000-.708L22.172.464a.5.5 0 10-.707.708L24.293 4l-2.828 2.828a.5.5 0 10.707.708l3.182-3.182zM0 4.5h25v-1H0v1z" fill="#2E2E2E"/></svg><svg viewBox="0 0 7 11" id="icon-arrow" xmlns="http://www.w3.org/2000/svg"><path d="M0 9.325L4.327 5.5 0 1.675 1.332.5 7 5.5l-5.668 5L0 9.325z"/></svg><svg fill="none" viewBox="0 0 20 20" id="icon-phone" xmlns="http://www.w3.org/2000/svg"><path d="M4.111 8.675a16.582 16.582 0 007.214 7.214l2.408-2.408a1.088 1.088 0 011.117-.263c1.226.405 2.55.624 3.908.624.602 0 1.094.493 1.094 1.095v3.82c0 .602-.492 1.095-1.095 1.095C8.48 19.852.148 11.522.148 1.242.148.642.641.149 1.243.149h3.831c.602 0 1.095.493 1.095 1.095 0 1.368.219 2.682.624 3.908.12.383.033.81-.274 1.116L4.111 8.675z" fill="#393939"/></svg><svg fill="none" viewBox="0 0 137 60" id="logo" xmlns="http://www.w3.org/2000/svg"><path d="M3.016 50.266v4.244h4.053v.55H3.016v4.274h4.487v.55H2.364V49.715h5.139v.55H3.016zM14.469 59.334h3.778v.55h-4.43V49.715h.652v9.619zM24.72 50.266v4.244h4.053v.55H24.72v4.274h4.488v.55h-5.14V49.715h5.14v.55H24.72zM35.116 54.814c0-1.004.208-1.897.623-2.68a4.733 4.733 0 011.737-1.854c.743-.444 1.573-.666 2.49-.666 1.158 0 2.132.27 2.924.811.791.54 1.37 1.299 1.737 2.274h-.753a3.667 3.667 0 00-1.448-1.825c-.665-.454-1.486-.68-2.46-.68-.782 0-1.491.188-2.128.564-.637.367-1.139.903-1.506 1.608-.366.695-.55 1.511-.55 2.448 0 .927.184 1.739.55 2.434a3.996 3.996 0 001.506 1.593 4.102 4.102 0 002.128.565c.974 0 1.795-.222 2.46-.666a3.744 3.744 0 001.448-1.84h.753c-.367.976-.946 1.733-1.737 2.274-.792.541-1.766.812-2.924.812-.917 0-1.747-.218-2.49-.652a4.759 4.759 0 01-1.737-1.84c-.415-.792-.623-1.685-.623-2.68zM56.62 49.715v.55h-2.895v9.62h-.651v-9.62h-2.896v-.55h6.442zM68 59.884l-2.606-4.331h-2.23v4.331h-.65V49.715h2.793c1.129 0 1.973.266 2.533.797.57.531.854 1.236.854 2.115 0 .782-.222 1.43-.666 1.94-.434.503-1.071.812-1.91.928l2.663 4.39h-.782zm-4.836-4.882h2.172c.897 0 1.568-.217 2.012-.651.444-.435.666-1.01.666-1.724 0-1.555-.903-2.332-2.707-2.332h-2.143v4.707zM79.5 60c-.936 0-1.78-.217-2.533-.652a4.668 4.668 0 01-1.766-1.854c-.424-.792-.637-1.685-.637-2.68 0-1.004.213-1.897.637-2.68a4.568 4.568 0 011.766-1.84c.753-.444 1.597-.666 2.534-.666.936 0 1.78.222 2.533.667a4.568 4.568 0 011.766 1.84c.424.782.637 1.675.637 2.68 0 .994-.213 1.887-.637 2.679a4.668 4.668 0 01-1.766 1.854c-.753.435-1.597.652-2.534.652zm0-.58c.802 0 1.525-.188 2.172-.564a3.943 3.943 0 001.52-1.608c.376-.695.564-1.507.564-2.434 0-.937-.188-1.753-.564-2.448a3.943 3.943 0 00-1.52-1.608c-.647-.376-1.37-.565-2.171-.565-.801 0-1.525.189-2.172.565a4.041 4.041 0 00-1.534 1.608c-.377.695-.565 1.511-.565 2.448 0 .927.188 1.739.565 2.434a4.041 4.041 0 001.534 1.608c.647.376 1.37.565 2.172.565zM98.015 59.884h-.651L91.4 50.787v9.097h-.652V49.73h.652l5.964 9.068V49.73h.651v10.154zM105.397 49.715v10.17h-.651v-10.17h.651zM111.722 54.814c0-1.004.208-1.897.623-2.68a4.724 4.724 0 011.737-1.854c.743-.444 1.573-.666 2.49-.666 1.158 0 2.132.27 2.924.811.791.54 1.37 1.299 1.737 2.274h-.753a3.668 3.668 0 00-1.448-1.825c-.665-.454-1.486-.68-2.46-.68-.782 0-1.491.188-2.128.564-.637.367-1.139.903-1.506 1.608-.366.695-.55 1.511-.55 2.448 0 .927.184 1.739.55 2.434a3.999 3.999 0 001.506 1.593 4.102 4.102 0 002.128.565c.974 0 1.795-.222 2.46-.666a3.745 3.745 0 001.448-1.84h.753c-.367.976-.946 1.733-1.737 2.274-.792.541-1.766.812-2.924.812-.917 0-1.747-.218-2.49-.652a4.75 4.75 0 01-1.737-1.84c-.415-.792-.623-1.685-.623-2.68zM133.371 57.277h-4.821l-.969 2.607h-.71l3.735-9.937h.724l3.72 9.937h-.709l-.97-2.607zm-.203-.55l-2.2-5.925-2.215 5.924h4.415zM11.01 38.493L3.345 20.512c-.496-1.15-.845-2.073-1.047-2.772a13.908 13.908 0 01-.406-1.825c-.315.022-.63.034-.945.034-.316 0-.63.01-.946.034v-1.488h7.836l-.034 1.15c-1.126.067-1.801.416-2.026 1.047-.226.609-.113 1.476.337 2.603.54 1.33 1.059 2.614 1.554 3.853.495 1.24 1.047 2.58 1.655 4.022.54 1.262 1.058 2.479 1.554 3.65.518 1.15.912 2.107 1.182 2.873h.068a90.09 90.09 0 01.742-2.264c.27-.721.586-1.577.946-2.569a476.04 476.04 0 001.689-4.8c.473-1.306.878-2.422 1.216-3.346.338-.923.62-1.712.844-2.365.203-.586.383-1.082.54-1.488.158-.405.305-.743.44-1.014a5238.217 5238.217 0 00-2.6.136v-1.488h6.856v1.116c-.991.045-1.757.304-2.297.777-.518.473-.99 1.318-1.419 2.535-.045.113-.101.27-.169.473l-.337.913c-.158.428-.383 1.059-.676 1.893-.293.81-.698 1.915-1.216 3.312a376.1 376.1 0 01-1.925 5.273c-.766 2.118-1.7 4.687-2.803 7.706h-.946zM39.19 29.4c0-.99-.134-1.7-.405-2.128-.27-.429-.698-.688-1.283-.778-.586-.09-1.362-.113-2.33-.067l-2.466.1v7.741c0 .608-.012 1.127-.034 1.555 0 .428-.023.788-.068 1.081l6.452-.101c.99-.022 1.846-.18 2.567-.473.72-.316 1.283-.856 1.688-1.623.406-.766.608-1.813.608-3.143h1.149l-.203 6.591H27.437V37.04c.855-.045 1.44-.237 1.756-.575.315-.36.484-.845.507-1.453.045-.631.067-1.341.067-2.13V18.281c0-.45.012-.879.034-1.284.023-.429.045-.812.068-1.15l-1.216.068-1.216.068v-1.488h16.246l.169 5.915h-1.115c0-1.33-.203-2.332-.608-3.008-.405-.699-.957-1.16-1.655-1.386-.675-.248-1.441-.36-2.297-.338l-2.904.068c-.834.022-1.43.18-1.79.473-.36.293-.586.732-.676 1.318-.068.564-.101 1.307-.101 2.231v5.408l6.35.034-.237-2.907h1.486v7.098h-1.114zM106.679 38.696L93.203 20.579a23.42 23.42 0 00-.608-.777c-.18-.27-.372-.541-.574-.812h-.034l.101 14.467v1.69c0 .563-.022 1.115-.067 1.656l1.216-.068 1.215-.067v1.487h-6.18v-1.116c.697 0 1.193-.146 1.486-.439.315-.315.517-.676.608-1.082a5.65 5.65 0 00.135-1.149l.033-16.257v-1.15-1.115c-.36.023-.731.045-1.114.068l-1.148.067v-1.487h4.019l12.666 16.968c.292.383.574.766.844 1.149l.878 1.149h.034l.034-15.48c0-.451.011-.88.034-1.285.022-.428.045-.81.067-1.149l-1.216.068-1.216.067v-1.487h6.215v1.116c-.833.022-1.407.213-1.723.574-.315.36-.484.845-.506 1.454a57.33 57.33 0 00-.034 2.129l-.068 18.928h-1.621zM115.249 38.155v-1.116c.675 0 1.193-.18 1.553-.54.361-.36.653-.857.879-1.488.247-.63.529-1.363.844-2.197l6.958-18.961h.81l7.532 19.232c.181.473.383 1.081.608 1.825.226.744.316 1.375.271 1.893l1.148-.068 1.148-.067v1.487h-7.734v-1.116c.855-.022 1.418-.214 1.688-.574.271-.36.372-.789.304-1.285a5.942 5.942 0 00-.337-1.352l-1.182-3.177-8.782.203-1.182 3.617c-.158.54-.304.969-.439 1.284a23.89 23.89 0 01-.406 1.048l1.318-.068 1.317-.067v1.487h-6.316zm6.214-8.754h7.803l-2.398-6.456a56.743 56.743 0 00-.777-2.062l-.743-2.095h-.068a63.126 63.126 0 01-.709 1.892c-.225.631-.462 1.273-.709 1.927l-2.399 6.794z" fill="#fff"/><path fill-rule="evenodd" clip-rule="evenodd" d="M62.785 5.266c-1.199.25-2.229.82-3.095 1.71-1.208 1.234-1.808 2.804-1.808 4.695 0 .822.132 1.661.403 2.508.263.855.616 1.587 1.068 2.195.468.625 1.125 1.226 1.972 1.81.846.575 2.136 1.306 3.878 2.194 1.536.765 2.703 1.423 3.516 1.95.814.534 1.472 1.068 1.973 1.61 1.388 1.514 2.079 3.355 2.079 5.526a9.532 9.532 0 01-.814 3.856 9.256 9.256 0 01-2.26 3.182c-1.709 1.57-3.739 2.36-6.072 2.36a9.45 9.45 0 01-2.111-.222c-.64-.157-1.503-.452-2.588-.905-.806-.32-1.356-.526-1.644-.608a2.673 2.673 0 00-.78-.132c-.559 0-.937.403-1.134 1.226h-.542l-.148-9.571h.542c.435 1.53.806 2.705 1.126 3.52.312.813.682 1.561 1.118 2.252.788 1.258 1.659 2.187 2.604 2.795.953.6 2.045.905 3.286.905 1.8 0 3.221-.608 4.273-1.834a5.593 5.593 0 001.019-1.767 5.7 5.7 0 00.378-2.031c0-2.689-1.726-4.852-5.185-6.496l-3.393-1.644c-2.622-1.242-4.511-2.615-5.662-4.112-1.323-1.676-1.98-3.626-1.98-5.845 0-1.472.297-2.878.896-4.219.838-1.866 2.095-3.313 3.764-4.324 1.502-.907 3.242-1.41 5.226-1.505l.095.921z" fill="#45A970"/><path fill-rule="evenodd" clip-rule="evenodd" d="M72.114 33.012c.394-.281.317-.18 1.182-1.07 1.208-1.233 1.61-2.86 1.61-4.752 0-.822-.132-1.66-.403-2.507-.263-.855-.616-1.587-1.068-2.195-.468-.625-1.125-1.226-1.972-1.81-.846-.575-2.136-1.307-3.878-2.195-1.536-.765-2.703-1.422-3.516-1.949-.814-.534-1.471-1.068-1.973-1.61-1.388-1.514-2.078-3.356-2.078-5.526 0-1.332.27-2.615.813-3.856a9.252 9.252 0 012.26-3.182C64.8.789 66.829 0 69.162 0c.765 0 1.463.074 2.112.222.64.156 1.504.452 2.589.904.805.32 1.355.526 1.643.608.296.09.55.132.78.132.56 0 .937-.403 1.134-1.225h.542l.148 9.57h-.542c-.435-1.529-.805-2.705-1.126-3.519a12.783 12.783 0 00-1.117-2.252c-.789-1.258-1.66-2.188-2.605-2.795-.953-.6-2.045-.905-3.286-.905-1.8 0-3.221.608-4.273 1.834a5.59 5.59 0 00-1.019 1.767 5.698 5.698 0 00-.378 2.03c0 2.69 1.726 4.853 5.185 6.497l3.393 1.644c2.622 1.242 4.511 2.615 5.662 4.111 1.323 1.677 1.98 3.627 1.98 5.846 0 1.472-.297 2.878-.896 4.218-.838 1.867-2.095 3.313-3.763 4.325-1.503.907-2.016 1.201-4 1.296l.789-1.296z" fill="#B4B4B4"/></svg></svg>